<svg height="500pt" viewBox="-2 0 500 500.944" width="500pt" xmlns="http://www.w3.org/2000/svg"><g fill="#e6e9ed"><path d="m488.472656 408v80l-48-24v-56zm0 0"/><path d="m488.472656 280v64h-48v-88zm0 0"/><path d="m376.472656 376v56l-48-24v-32zm0 0"/><path d="m376.472656 224v88h-48v-112zm0 0"/><path d="m328.472656 200v112h-64v-80zm0 0"/><path d="m328.472656 376v32l-160 80v-112zm0 0"/><path d="m232.472656 248v64h-64v-32zm0 0"/><path d="m168.472656 280v32h-48v-56zm0 0"/><path d="m168.472656 376v112l-48-24v-88zm0 0"/><path d="m56.472656 344v88l-48-24v-64zm0 0"/><path d="m56.472656 224v56h-48v-80zm0 0"/></g><path d="m232.472656 312v64h-112v88l-64-32v-88h-48v-64h48v-56l64 32v56zm0 0" fill="#a0d468"/><path d="m488.472656 344v64h-48v56l-64-32v-56h-112v-64h112v-88l64 32v88zm0 0" fill="#a0d468"/><path d="m264.472656 312v64h-32v-360c0-4.398438 3.597656-8 8-8h16c4.398438 0 8 3.601562 8 8zm0 0" fill="#cf9e76"/><path d="m264.472656 168v-144h208l-56 72 56 72zm0 0" fill="#ff826e"/><path d="m328.464844 191.054688-55.992188 27.992187v-43.046875h216.351563l-62.214844-80 62.214844-80h-216.351563c0-8.824219-7.175781-16-16-16h-16c-8.824218 0-16 7.175781-16 16v227.046875l-56.015625 28.007813-167.984375-84v225.890624l167.984375 84 160.007813-80 168.007812 84v-225.890624zm152.007812 144.945312h-32v-67.054688l32 16zm-48 115.054688-48-24v-59.054688h-112v-48h112v-83.054688l48 24v91.054688h48v48h-48zm-368-214.109376 48 24v59.054688h112v48h-112v83.054688l-48-24v-91.054688h-48v-48h48zm95.984375 67.054688h-31.984375v-35.046875l31.984375 15.992187zm-31.984375 80h31.984375v91.054688l-31.984375-15.992188zm47.984375 0h144.007813v19.054688l-144.007813 72zm160.007813 0h32.007812v35.054688l-32.007812-16zm0-171.054688 32.007812 16v75.054688h-32.007812zm-16 0v91.054688h-47.992188v-67.0625zm135.65625-180.945312-49.785156 64 49.785156 64h-183.648438v-128zm-199.648438-16v352h-16v-352zm-32 288h-48.015625v-19.054688l48.015625-24zm-176-75.054688v43.054688h-32v-59.054688zm-32 123.054688h32v67.054688l-32-16zm432 107.054688v-43.054688h32v59.054688zm0 0"/><path d="m400.472656 272h16v16h-16zm0 0"/><path d="m400.472656 304h16v16h-16zm0 0"/><path d="m400.472656 336h16v16h-16zm0 0"/><path d="m368.472656 336h16v16h-16zm0 0"/><path d="m336.472656 336h16v16h-16zm0 0"/><path d="m304.472656 336h16v16h-16zm0 0"/><path d="m176.472656 336h16v16h-16zm0 0"/><path d="m144.472656 336h16v16h-16zm0 0"/><path d="m112.472656 336h16v16h-16zm0 0"/><path d="m80.472656 336h16v16h-16zm0 0"/><path d="m80.472656 368h16v16h-16zm0 0"/><path d="m80.472656 400h16v16h-16zm0 0"/><path d="m288.472656 48h16v16h-16zm0 0"/><path d="m320.472656 48h16v16h-16zm0 0"/><path d="m352.472656 48h16v16h-16zm0 0"/></svg>