<svg height="512pt" viewBox="-9 0 512 512" width="512pt" xmlns="http://www.w3.org/2000/svg"><path d="m412.203125 512h-327.070313c-8.285156 0-15-6.714844-15-15v-425.332031c0-8.28125 6.714844-15 15-15h327.070313c8.28125 0 15 6.71875 15 15v425.332031c0 8.285156-6.714844 15-15 15zm0 0" fill="#ffded5"/><path d="m412 56.667969h-20.269531v422.226562c0 8.394531-6.808594 15.203125-15.203125 15.203125h-306.394532v2.699219c0 8.394531 6.804688 15.203125 15.203126 15.203125h326.664062c8.394531 0 15.203125-6.804688 15.203125-15.203125v-424.925781c0-8.394532-6.808594-15.203125-15.203125-15.203125zm0 0" fill="#f7c6ba"/><path d="m173.953125 73.203125h-53.222656v-30.703125c0-8.769531 7.109375-15.878906 15.875-15.878906h21.472656c8.769531 0 15.875 7.109375 15.875 15.878906zm0 0" fill="#1dc2ff"/><path d="m379.378906 73.203125h-53.222656v-30.703125c0-8.769531 7.105469-15.878906 15.875-15.878906h21.472656c8.765625 0 15.875 7.109375 15.875 15.878906zm0 0" fill="#1dc2ff"/><path d="m147.34375 46.910156c-4.199219 0-7.601562-3.402344-7.601562-7.601562v-31.707032c0-4.199218 3.402343-7.601562 7.601562-7.601562 4.195312 0 7.597656 3.402344 7.597656 7.601562v31.707032c0 4.199218-3.402344 7.601562-7.597656 7.601562zm0 0" fill="#00a2ff"/><path d="m352.765625 46.910156c-4.199219 0-7.601563-3.402344-7.601563-7.601562v-31.707032c0-4.199218 3.402344-7.601562 7.601563-7.601562s7.601563 3.402344 7.601563 7.601562v31.707032c0 4.199218-3.402344 7.601562-7.601563 7.601562zm0 0" fill="#00a2ff"/><path d="m446.148438 186.226562h-113.273438c-8.285156 0-15-6.714843-15-15v-49.976562c0-8.285156 6.714844-15 15-15h113.273438c8.285156 0 15 6.714844 15 15v49.976562c0 8.285157-6.714844 15-15 15zm0 0" fill="#1dc2ff"/><path d="m445.945312 106.25h-19.59375c8.394532 0 15.203126 6.804688 15.203126 15.203125v49.570313c0 8.398437-6.808594 15.203124-15.203126 15.203124h19.59375c8.398438 0 15.203126-6.804687 15.203126-15.203124v-49.570313c0-8.398437-6.804688-15.203125-15.203126-15.203125zm0 0" fill="#00a2ff"/><path d="m294.628906 248.992188h-247.421875l-43.242187-13.101563c-5.25-2.367187-5.292969-9.808594-.074219-12.234375l43.316406-13.542969h247.421875c10.738282 0 19.441406 8.703125 19.441406 19.441407 0 10.734374-8.703124 19.4375-19.441406 19.4375zm0 0" fill="#1dc2ff"/><path d="m296.445312 210.203125c.023438.378906.058594.753906.058594 1.136719 0 10.734375-8.703125 19.441406-19.441406 19.441406h-276.984375c.308594 2.109375 1.636719 4.09375 3.886719 5.109375l43.242187 13.101563h247.425781c10.734376 0 19.4375-8.703126 19.4375-19.441407 0-10.121093-7.742187-18.429687-17.625-19.347656zm0 0" fill="#00a2ff"/><path d="m266.710938 152.222656h-156.117188c-4.195312 0-7.601562-3.402344-7.601562-7.601562 0-4.195313 3.40625-7.597656 7.601562-7.597656h156.117188c4.195312 0 7.601562 3.402343 7.601562 7.597656 0 4.199218-3.40625 7.601562-7.601562 7.601562zm0 0" fill="#32e4ff"/><path d="m216.066406 180.605469h-105.472656c-4.195312 0-7.601562-3.402344-7.601562-7.601563 0-4.199218 3.40625-7.601562 7.601562-7.601562h105.472656c4.199219 0 7.601563 3.402344 7.601563 7.601562 0 4.199219-3.402344 7.601563-7.601563 7.601563zm0 0" fill="#32e4ff"/><path d="m55.507812 210.113281h-8.300781l-43.3125 13.539063c-5.222656 2.429687-5.179687 9.871094.070313 12.238281l43.242187 13.101563h8.304688v-38.878907zm0 0" fill="#ffded5"/><path d="m.09375 230.847656c.335938 2.082032 1.621094 4.027344 3.871094 5.042969l43.242187 13.101563h8.300781v-18.144532zm0 0" fill="#f7cdc4"/><path d="m32.085938 214.839844-28.195313 8.8125c-5.21875 2.429687-5.179687 9.871094.074219 12.238281l28.121094 8.519531zm0 0" fill="#00a2ff"/><path d="m172.207031 329.105469c0 20.945312-16.980469 37.929687-37.929687 37.929687-20.945313 0-37.925782-16.984375-37.925782-37.929687 0-20.949219 16.980469-37.929688 37.925782-37.929688 20.949218 0 37.929687 16.980469 37.929687 37.929688zm0 0" fill="#1dc2ff"/><path d="m479.292969 471.40625h-268.621094c-8.28125 0-15-6.71875-15-15v-150.050781c0-8.28125 6.71875-15 15-15h268.621094c8.285156 0 15 6.71875 15 15v150.050781c0 8.28125-6.714844 15-15 15zm0 0" fill="#1dc2ff"/><path d="m489.945312 466.839844-144.960937-152.195313-144.960937 152.195313c2.757812 2.8125 6.597656 4.566406 10.851562 4.566406h268.214844c4.253906 0 8.09375-1.753906 10.855468-4.566406zm0 0" fill="#00a2ff"/><path d="m479.089844 291.355469h-8.261719v140.25c0 8.394531-6.808594 15.203125-15.203125 15.203125h-236.523438l-19.078124 20.03125c.15625.15625.324218.308594.488281.460937.148437.140625.300781.28125.457031.417969.171875.144531.347656.289062.523438.429688.167968.132812.34375.257812.515624.386718.175782.125.347657.25.523438.367188.328125.214844.664062.421875 1.011719.613281h.003906c0 .003906 0 .003906.003906.003906.402344.222657.824219.425781 1.253907.613281.023437.011719.042968.023438.066406.035157.007812.003906.015625.007812.023437.011719.402344.171874.8125.316406 1.230469.457031.0625.019531.121094.046875.183594.066406.390625.121094.789062.21875 1.1875.308594.089844.019531.171875.046875.257812.066406.011719.003906.019532.007813.03125.007813.386719.082031.78125.132812 1.175782.183593.015624 0 .03125.003907.046874.007813.101563.011718.199219.035156.300782.042968.515625.054688 1.039062.082032 1.566406.082032h268.214844c8.398437 0 15.203125-6.804688 15.203125-15.203125v-149.640625c0-8.394532-6.804688-15.203125-15.203125-15.203125zm0 0" fill="#00a2ff"/><path d="m481.003906 471.273438c.394532-.050782.792969-.105469 1.179688-.183594.09375-.019532.183594-.050782.28125-.074219.402344-.089844.800781-.1875 1.191406-.3125.058594-.019531.117188-.042969.175781-.0625.421875-.136719.835938-.289063 1.242188-.460937.027343-.011719.050781-.027344.078125-.039063 1.804687-.789063 3.433594-1.914063 4.792968-3.300781l-23.449218-24.617188c-2.757813 2.824219-6.605469 4.585938-10.871094 4.585938h-236.523438l-19.078124 20.03125c1.035156 1.054687 2.21875 1.957031 3.523437 2.679687.410156.226563.832031.429688 1.261719.617188 1.90625.828125 3.988281 1.265625 6.066406 1.265625h268.214844c.53125 0 1.050781-.023438 1.566406-.078125.117188-.011719.230469-.039063.347656-.050781zm0 0" fill="#08f"/><g fill="#32e4ff"><path d="m344.984375 389.855469 143.890625-94.921875c-2.644531-2.230469-6.054688-3.578125-9.785156-3.578125h-268.214844c-3.726562 0-7.136719 1.347656-9.78125 3.578125zm0 0"/><path d="m96.351562 329.105469c0 5.875 1.335938 11.441406 3.722657 16.40625 4.964843 2.386719 10.527343 3.722656 16.40625 3.722656 20.945312 0 37.925781-16.980469 37.925781-37.929687 0-5.875-1.335938-11.441407-3.722656-16.40625-4.964844-2.386719-10.527344-3.722657-16.40625-3.722657-20.945313 0-37.925782 16.980469-37.925782 37.929688zm0 0"/></g></svg>