<?xml version="1.0" ?><svg id="Layer_1" style="enable-background:new 0 0 30 30;" version="1.1" viewBox="0 0 30 30" xml:space="preserve" xmlns="http://www.w3.org/2000/svg" xmlns:xlink="http://www.w3.org/1999/xlink"><style type="text/css">
	.st0{fill:#5EA3D7;}
	.st1{fill:#D8D2D2;}
</style><path class="st0" d="M22.6950073,8.0100098h-2.3800049V3c0-0.5499878-0.4400024-1-1-1c-0.5499878,0-1,0.4500122-1,1v5.0100098  h-6.6300049V3c0-0.5499878-0.4500122-1-1-1c-0.5599976,0-1,0.4500122-1,1v5.0100098H7.3049927c-0.5499878,0-1,0.4499512-1,1  c0,0.5599976,0.4500122,1,1,1H7.414978v4.1799927c0,4.2199707,2.8699951,7.6999512,6.5800171,8.2399902V27  c0,0.5599976,0.4500122,1,1,1c0.5599976,0,1-0.4400024,1-1v-4.5700073c3.7199707-0.5400391,6.5899658-4.0200195,6.5899658-8.2399902  v-4.1799927h0.1100464c0.5499878,0,1-0.4400024,1-1C23.6950073,8.4599609,23.2449951,8.0100098,22.6950073,8.0100098z   M15.9949951,15.2600098c0,0.5499878-0.4400024,1-1,1c-0.5499878,0-1-0.4500122-1-1v-0.9000244c0-0.5499878,0.4500122-1,1-1  c0.5599976,0,1,0.4500122,1,1V15.2600098z"/></svg>