<svg height="512pt" viewBox="-82 0 512 512" width="512pt" xmlns="http://www.w3.org/2000/svg"><path d="m265.679688 365h-18.308594l43.980468-56.066406.292969-.386719c29.886719-40.761719 56.714844-81.710937 56.714844-134.367187 0-95.8125-77.773437-173.804688-173.5-174.17578175l-.703125-.00390625c-96.027344 0-174.15625 78.136719-174.15625 174.179688 0 52.65625 26.828125 93.601562 56.714844 134.367187l44.28125 56.453125h-18.316406c-40.527344 0-73.5 32.972656-73.5 73.5s32.972656 73.5 73.5 73.5h183c40.527343 0 73.5-32.972656 73.5-73.5s-32.972657-73.5-73.5-73.5zm-235.679688-190.820312c0-79.28125 64.320312-143.824219 143.507812-144.175782h.671876c79.5 0 144.179687 64.675782 144.179687 144.175782 0 43.570312-22.976563 78.519531-50.765625 116.433593l-93.414062 119.082031-93.414063-119.085937c-27.789063-37.910156-50.765625-72.859375-50.765625-116.429687zm235.679688 307.820312h-183c-23.988282 0-43.5-19.515625-43.5-43.5s19.511718-43.5 43.5-43.5h41.847656l49.652344 63.304688 49.65625-63.304688h41.84375c23.984374 0 43.5 19.515625 43.5 43.5s-19.515626 43.5-43.5 43.5zm0 0"/><path d="m276.53125 174.351562c0-56.4375-45.914062-102.351562-102.351562-102.351562s-102.351563 45.914062-102.351563 102.351562 45.914063 102.351563 102.351563 102.351563 102.351562-45.914063 102.351562-102.351563zm-174.703125 0c0-39.894531 32.457031-72.351562 72.351563-72.351562 39.894531 0 72.351562 32.457031 72.351562 72.351562 0 39.894532-32.457031 72.351563-72.351562 72.351563-39.894532 0-72.351563-32.457031-72.351563-72.351563zm0 0"/></svg>