<?xml version="1.0" ?><svg id="Layer_1" style="enable-background:new 0 0 137.3 139.3;" version="1.1" viewBox="0 0 137.3 139.3" xml:space="preserve" xmlns="http://www.w3.org/2000/svg" xmlns:xlink="http://www.w3.org/1999/xlink"><style type="text/css">
	.st0{fill:#2C8AAA;}
	.st1{opacity:0.19;clip-path:url(#XMLID_39_);fill:#070808;}
	.st2{fill:#EDF0F1;}
	.st3{fill:#215C6D;}
	.st4{opacity:4.000000e-002;}
</style><g id="XMLID_2720_"><g id="XMLID_2721_"><circle class="st0" cx="68.5" cy="70.8" id="XMLID_2725_" r="66.2"/><g id="XMLID_2722_"><defs><circle cx="68.7" cy="70.8" id="XMLID_2723_" r="66.2"/></defs><clipPath id="XMLID_39_"><use style="overflow:visible;" xlink:href="#XMLID_2723_"/></clipPath><polygon class="st1" id="XMLID_2678_" points="53,103.4 98.5,129.9 134,137 145.3,75.8 90.2,38.9 85.9,78.2    "/></g></g></g><g id="XMLID_2749_"><path class="st2" d="M68.7,32.1c-20.6,0-37.4,16.7-37.4,37.4s16.7,37.4,37.4,37.4s37.4-16.7,37.4-37.4   S89.4,32.1,68.7,32.1z M68.7,85.2c-8.7,0-15.7-7-15.7-15.7s7-15.7,15.7-15.7s15.7,7,15.7,15.7S77.4,85.2,68.7,85.2z" id="XMLID_2692_"/><path class="st3" d="M52.8,35.7l8.8,19.8c0,0,6-3.4,13.6-0.4l9-19.7C84.2,35.4,69.3,27.7,52.8,35.7z" id="XMLID_2745_"/><path class="st3" d="M84.5,103.4l-8.8-19.8c0,0-6,3.2-13.6,0.2L53,103.4C53,103.4,68.1,111.3,84.5,103.4z" id="XMLID_2724_"/><path class="st3" d="M34.8,85.1l20-8.3c0,0-3.5-5.9-0.5-13.5l-19.5-9.5C34.8,53.8,26.7,68.6,34.8,85.1z" id="XMLID_2747_"/><path class="st3" d="M102.7,85.1l-19.8-8.8c0,0,3.1-5.7,0.1-13.2l19.6-9.2C102.7,53.8,110.7,68.6,102.7,85.1z" id="XMLID_2748_"/><path class="st4" d="M68.7,48.1c-11.8,0-21.4,9.6-21.4,21.4s9.6,21.4,21.4,21.4s21.4-9.6,21.4-21.4   S80.6,48.1,68.7,48.1z M68.7,85.2C60,85.2,53,78.2,53,69.4S60,53.7,68.7,53.7s15.8,7.1,15.8,15.8S77.5,85.2,68.7,85.2z" id="XMLID_2767_"/></g></svg>