<svg xmlns="http://www.w3.org/2000/svg" style="display: none;"><symbol id="list" viewBox="0 0 60.123 60.123"><title>list</title><path d="M57.124,51.893H16.92c-1.657,0-3-1.343-3-3s1.343-3,3-3h40.203c1.657,0,3,1.343,3,3S58.781,51.893,57.124,51.893z"/><path d="M57.124,33.062H16.92c-1.657,0-3-1.343-3-3s1.343-3,3-3h40.203c1.657,0,3,1.343,3,3 C60.124,31.719,58.781,33.062,57.124,33.062z"/><path d="M57.124,14.231H16.92c-1.657,0-3-1.343-3-3s1.343-3,3-3h40.203c1.657,0,3,1.343,3,3S58.781,14.231,57.124,14.231z"/><circle cx="4.029" cy="11.463" r="4.029"/><circle cx="4.029" cy="30.062" r="4.029"/><circle cx="4.029" cy="48.661" r="4.029"/></symbol><symbol id="order" viewBox="-87 0 512 512.002"><title>order</title><path d="m28.78125 441.308594h280.742188c11.972656 0 21.710937-9.738282 21.710937-21.710938v-166.078125c0-4.183593-3.390625-7.574219-7.574219-7.574219-4.179687 0-7.570312 3.390626-7.570312 7.574219v166.078125c0 3.621094-2.945313 6.5625-6.566406 6.5625h-280.742188c-3.617188 0-6.5625-2.941406-6.5625-6.5625v-371.628906c0-3.621094 2.945312-6.566406 6.5625-6.566406h12.625v126.191406c0 4.183594 3.390625 7.574219 7.574219 7.574219 4.179687 0 7.574219-3.390625 7.574219-7.574219v-126.191406h23.226562v12.625c0 4.183594 3.390625 7.574218 7.574219 7.574218 4.179687 0 7.574219-3.390624 7.574219-7.574218v-12.625h27.265624v12.625c0 4.183594 3.390626 7.574218 7.574219 7.574218 4.179688 0 7.574219-3.390624 7.574219-7.574218v-12.625h24.234375v12.625c0 4.183594 3.390625 7.574218 7.574219 7.574218s7.574218-3.390624 7.574218-7.574218v-12.625h24.238282v12.625c0 4.183594 3.390625 7.574218 7.574218 7.574218 4.183594 0 7.574219-3.390624 7.574219-7.574218v-12.625h25.246094v12.625c0 4.183594 3.390625 7.574218 7.574219 7.574218s7.574218-3.390624 7.574218-7.574218v-12.625h25.246094v350.421875h-225.199218v-188.800781c0-4.183594-3.394532-7.574219-7.574219-7.574219-4.183594 0-7.574219 3.390625-7.574219 7.574219v196.375c0 4.183593 3.390625 7.574218 7.574219 7.574218h240.34375c4.183593 0 7.574219-3.390625 7.574219-7.574218v-357.996094h12.625c3.617187 0 6.5625 2.945312 6.5625 6.566406v170.203125c0 4.183594 3.390624 7.574219 7.574218 7.574219s7.574219-3.390625 7.574219-7.574219v-170.203125c0-11.972656-9.738281-21.710938-21.710937-21.710938h-53.019532v-18.683593c0-4.183594-3.390625-7.574219-7.574218-7.574219-4.183594 0-7.574219 3.390625-7.574219 7.574219v18.683593h-25.246094v-18.683593c0-4.183594-3.390625-7.574219-7.574219-7.574219s-7.574218 3.390625-7.574218 7.574219v18.683593h-24.234376v-18.683593c0-4.183594-3.390624-7.574219-7.574218-7.574219s-7.574219 3.390625-7.574219 7.574219v18.683593h-24.234375v-18.683593c0-4.183594-3.394531-7.574219-7.574219-7.574219-4.183593 0-7.574219 3.390625-7.574219 7.574219v18.683593h-27.265624v-18.683593c0-4.183594-3.394532-7.574219-7.574219-7.574219-4.183594 0-7.574219 3.390625-7.574219 7.574219v18.683593h-51c-11.972656 0-21.710938 9.738282-21.710938 21.710938v371.628906c0 11.972656 9.738282 21.710938 21.710938 21.710938zm0 0"/><path d="m225.703125 112.09375h24.238281c4.183594 0 7.574219-3.390625 7.574219-7.574219 0-4.179687-3.390625-7.574219-7.574219-7.574219h-24.238281c-4.179687 0-7.570313 3.394532-7.570313 7.574219 0 4.183594 3.390626 7.574219 7.570313 7.574219zm0 0"/><path d="m88.363281 112.09375h107.046875c4.183594 0 7.574219-3.390625 7.574219-7.574219 0-4.179687-3.390625-7.574219-7.574219-7.574219h-107.046875c-4.183593 0-7.574219 3.394532-7.574219 7.574219 0 4.183594 3.390626 7.574219 7.574219 7.574219zm0 0"/><path d="m225.703125 152.488281h24.238281c4.183594 0 7.574219-3.390625 7.574219-7.574219 0-4.183593-3.390625-7.574218-7.574219-7.574218h-24.238281c-4.179687 0-7.570313 3.390625-7.570313 7.574218 0 4.183594 3.390626 7.574219 7.570313 7.574219zm0 0"/><path d="m88.363281 152.488281h107.046875c4.183594 0 7.574219-3.390625 7.574219-7.574219 0-4.183593-3.390625-7.574218-7.574219-7.574218h-107.046875c-4.183593 0-7.574219 3.390625-7.574219 7.574218 0 4.183594 3.390626 7.574219 7.574219 7.574219zm0 0"/><path d="m225.703125 192.882812h24.238281c4.183594 0 7.574219-3.390624 7.574219-7.574218 0-4.179688-3.390625-7.574219-7.574219-7.574219h-24.238281c-4.179687 0-7.570313 3.394531-7.570313 7.574219 0 4.183594 3.390626 7.574218 7.570313 7.574218zm0 0"/><path d="m88.363281 192.882812h107.046875c4.183594 0 7.574219-3.390624 7.574219-7.574218 0-4.179688-3.390625-7.574219-7.574219-7.574219h-107.046875c-4.183593 0-7.574219 3.394531-7.574219 7.574219 0 4.183594 3.390626 7.574218 7.574219 7.574218zm0 0"/><path d="m225.703125 233.277344h24.238281c4.183594 0 7.574219-3.390625 7.574219-7.574219s-3.390625-7.574219-7.574219-7.574219h-24.238281c-4.179687 0-7.570313 3.390625-7.570313 7.574219s3.390626 7.574219 7.570313 7.574219zm0 0"/><path d="m88.363281 233.277344h107.046875c4.183594 0 7.574219-3.390625 7.574219-7.574219s-3.390625-7.574219-7.574219-7.574219h-107.046875c-4.183593 0-7.574219 3.390625-7.574219 7.574219s3.390626 7.574219 7.574219 7.574219zm0 0"/><path d="m225.703125 273.671875h24.238281c4.183594 0 7.574219-3.390625 7.574219-7.574219s-3.390625-7.574218-7.574219-7.574218h-24.238281c-4.179687 0-7.570313 3.390624-7.570313 7.574218s3.390626 7.574219 7.570313 7.574219zm0 0"/><path d="m88.363281 273.671875h107.046875c4.183594 0 7.574219-3.390625 7.574219-7.574219s-3.390625-7.574218-7.574219-7.574218h-107.046875c-4.183593 0-7.574219 3.390624-7.574219 7.574218s3.390626 7.574219 7.574219 7.574219zm0 0"/><path d="m320.632812 454.4375h-168.394531c-4.183593 0-7.574219 3.390625-7.574219 7.574219 0 4.183593 3.390626 7.574219 7.574219 7.574219h102.25v6.058593h-59.078125c-4.183594 0-7.574218 3.390625-7.574218 7.574219s3.390624 7.574219 7.574218 7.574219h59.078125v6.058593h-203.882812c-6.769531 0-13.277344-2.050781-18.824219-5.933593l-11-7.699219 11-7.699219c5.546875-3.882812 12.054688-5.933593 18.824219-5.933593h66.605469c4.179687 0 7.570312-3.390626 7.570312-7.574219 0-4.183594-3.390625-7.574219-7.570312-7.574219h-66.605469c-9.894531 0-19.40625 3-27.507813 8.671875l-19.867187 13.90625c-2.023438 1.417969-3.230469 3.730469-3.230469 6.203125s1.207031 4.789062 3.230469 6.207031l19.867187 13.902344c8.101563 5.675781 17.613282 8.675781 27.507813 8.675781h270.027343c9.746094 0 17.671876-7.929687 17.671876-17.675781v-22.21875c0-9.742187-7.925782-17.671875-17.671876-17.671875zm-51 42.414062v-6.058593h3.535157c4.183593 0 7.574219-3.390625 7.574219-7.574219s-3.390626-7.574219-7.574219-7.574219h-3.535157v-6.058593h17.167969v27.265624zm53.523438-2.523437c0 1.390625-1.132812 2.523437-2.523438 2.523437h-18.683593v-27.265624h18.683593c1.390626 0 2.523438 1.132812 2.523438 2.523437zm0 0"/></symbol><symbol id="support" viewBox="0 0 422.692 422.692"><title>support</title><path d="M271.786,289.626v-7.36c2.08-1.68,4.08-3.52,6-5.44c15.373-16.927,25.053-38.246,27.68-60.96 c13.816-2.105,26.269-9.509,34.72-20.64c11.6-16.4,12.64-40,2.96-69.6c-0.569-1.707-1.696-3.173-3.2-4.16l-4.4-2.96 c0.649-26.708-8.581-52.716-25.92-73.04c-21.52-24.24-54.56-36.48-98.32-36.64c-43.68,0-76.8,12.4-98.32,36.32 c-17.339,20.324-26.569,46.332-25.92,73.04l-4.4,2.96c-1.504,0.987-2.631,2.453-3.2,4.16c-9.68,29.76-8.64,53.2,2.96,69.6 c8.419,11.209,20.872,18.698,34.72,20.88c2.638,22.75,12.348,44.099,27.76,61.04c1.905,1.916,3.907,3.732,6,5.44v7.36 c-30.64,5.92-152.96,34.64-150.88,116.24c0,4.418,3.582,8,8,8h406.64c4.418,0,8-3.582,8-8 C424.746,324.266,302.426,295.546,271.786,289.626z M112.346,197.946c-6.798-2.283-12.723-6.614-16.96-12.4l0.4,0.08 c-8-11.68-8.72-29.36-1.6-52.72l5.84-3.92c2.457-1.64,3.81-4.5,3.52-7.44c-1.346-23.91,6.431-47.441,21.76-65.84 c18.08-20.48,47.12-30.72,86-30.88c38.88-0.16,67.92,10.4,86.32,30.88c15.329,18.399,23.106,41.93,21.76,65.84 c-0.29,2.94,1.063,5.8,3.52,7.44l5.84,3.92c7.12,23.28,6.64,41.04-1.6,52.72c-4.266,5.791-10.217,10.122-17.04,12.4 c9.65-10.98,14.365-25.442,13.04-40c-1.499-8.759-6.065-16.698-12.88-22.4c-3.44-80-59.52-88.96-83.68-88.96 c-5.114-0.015-10.222,0.36-15.28,1.12c-5.057-0.761-10.166-1.135-15.28-1.12c-24,0-80,8.8-83.68,88.96 c-6.859,5.656-11.481,13.568-13.04,22.32C97.972,172.505,102.688,186.971,112.346,197.946z M294.346,132.346 c-33.569,1.94-66.928-6.435-95.6-24c-3.245-2.279-7.67-1.836-10.4,1.04c-16,17.2-45.2,21.2-59.28,22.08 c4.32-56.56,38.56-68.88,67.36-68.88c4.584-0.033,9.162,0.342,13.68,1.12c1.056,0.216,2.144,0.216,3.2,0 c4.518-0.776,9.096-1.151,13.68-1.12c28.56,0,62.96,12.64,66.96,69.68L294.346,132.346z M131.866,199.466l0.32,0.08 c0.017-1.972-0.695-3.881-2-5.36c-10.96-12.56-16-24-14.64-33.44c0.652-5.258,3.249-10.081,7.28-13.52c10.56,0,48-2,72-22.72 c27.029,15.539,57.623,23.808,88.8,24c5.36,0,10.8,0,16.48-0.88c3.921,3.348,6.482,8.014,7.2,13.12 c1.36,9.28-3.68,20.88-14.64,33.44c-1.305,1.479-2.017,3.388-2,5.36c0,0,0,1.6,0,4.16l-46.56,24.96 c-9.24-8.748-23.823-8.349-32.571,0.891c-8.748,9.24-8.349,23.823,0.891,32.571c9.24,8.748,23.823,8.349,32.571-0.891 c4.054-4.282,6.312-9.955,6.309-15.851c0.036-0.72,0.036-1.44,0-2.16l36.72-19.68c-3.152,15.775-10.567,30.384-21.44,42.24 c-14.182,13.654-33.379,20.835-53.04,19.84h-4c-19.619,0.974-38.774-6.172-52.96-19.76 C131.306,240.666,131.866,199.866,131.866,199.466z M235.306,245.386c0,3.932-3.188,7.12-7.12,7.12c-3.932,0-7.12-3.188-7.12-7.12 c0-3.932,3.188-7.12,7.12-7.12S235.306,241.454,235.306,245.386z M203.306,397.386H16.266c6.32-60.08,104-85.2,134.56-91.68v14.32 c0,18.16,22.08,32,52.48,34.32V397.386z M166.826,320.026v-0.24v-27.36c13.298,6.167,27.824,9.231,42.48,8.96h4 c14.656,0.271,29.182-2.793,42.48-8.96v27.6c0,7.6-17.36,18.56-44.48,18.56S166.826,327.626,166.826,320.026z M219.306,397.626 v-43.36c30.4-2.08,52.48-16,52.48-34.32v-14c30.8,6.4,128,31.52,134.56,91.68H219.306z"/></symbol><symbol id="information" viewBox="0 0 330 330"><title>information</title><path d="M165,0C74.019,0,0,74.02,0,165.001C0,255.982,74.019,330,165,330s165-74.018,165-164.999C330,74.02,255.981,0,165,0z M165,300c-74.44,0-135-60.56-135-134.999C30,90.562,90.56,30,165,30s135,60.562,135,135.001C300,239.44,239.439,300,165,300z"/><path d="M164.998,70c-11.026,0-19.996,8.976-19.996,20.009c0,11.023,8.97,19.991,19.996,19.991 c11.026,0,19.996-8.968,19.996-19.991C184.994,78.976,176.024,70,164.998,70z"/><path d="M165,140c-8.284,0-15,6.716-15,15v90c0,8.284,6.716,15,15,15c8.284,0,15-6.716,15-15v-90C180,146.716,173.284,140,165,140z "/></symbol><symbol id="list-1" viewBox="0 0 60 60"><title>list-1</title><path d="M23.429,17H47c0.552,0,1-0.447,1-1s-0.448-1-1-1H23.429c-0.552,0-1,0.447-1,1S22.877,17,23.429,17z"/><path d="M23.429,32H47c0.552,0,1-0.447,1-1s-0.448-1-1-1H23.429c-0.552,0-1,0.447-1,1S22.877,32,23.429,32z"/><path d="M23.429,47H47c0.552,0,1-0.447,1-1s-0.448-1-1-1H23.429c-0.552,0-1,0.447-1,1S22.877,47,23.429,47z"/><path d="M59,0H1C0.448,0,0,0.447,0,1v58c0,0.553,0.448,1,1,1h58c0.552,0,1-0.447,1-1V1C60,0.447,59.552,0,59,0z M58,58H2V2h56V58z"/><polygon points="12.501,18.474 14.929,17.197 17.357,18.474 16.894,15.77 18.858,13.854 16.143,13.46 14.929,11 13.715,13.46 11,13.854 12.965,15.77 "/><polygon points="12.501,33.557 14.929,32.28 17.357,33.557 16.894,30.853 18.858,28.938 16.143,28.543 14.929,26.083 13.715,28.543 11,28.938 12.965,30.853 "/><polygon points="12.501,49 14.929,47.723 17.357,49 16.894,46.296 18.858,44.381 16.143,43.986 14.929,41.526 13.715,43.986 11,44.381 12.965,46.296 "/></symbol><symbol id="add" viewBox="0 0 491.86 491.86"><title>add</title><path d="M465.167,211.614H280.245V26.691c0-8.424-11.439-26.69-34.316-26.69s-34.316,18.267-34.316,26.69v184.924H26.69 C18.267,211.614,0,223.053,0,245.929s18.267,34.316,26.69,34.316h184.924v184.924c0,8.422,11.438,26.69,34.316,26.69 s34.316-18.268,34.316-26.69V280.245H465.17c8.422,0,26.69-11.438,26.69-34.316S473.59,211.614,465.167,211.614z"/></symbol><symbol id="question" viewBox="0 0 512.001 512.001"><title>question</title><g> <g> <path d="M509.989,463.656L474.84,361.363c16.906-34.174,25.847-72.265,25.907-110.593c0.102-66.002-25.435-128.411-71.909-175.727 C382.357,27.718,320.418,1.08,254.433,0.033c-34.571-0.555-68.117,5.815-99.757,18.912c-30.517,12.633-57.884,30.932-81.34,54.388 c-23.457,23.456-41.756,50.823-54.388,81.34c-13.097,31.64-19.46,65.203-18.913,99.757 c1.045,65.985,27.684,127.924,75.009,174.406c47.224,46.383,109.472,71.912,175.332,71.911c0.129,0,0.265,0,0.394,0 c38.328-0.06,76.419-9.001,110.594-25.907l102.293,35.149c3.934,1.352,7.966,2.011,11.954,2.011 c9.474,0,18.69-3.722,25.678-10.712C511.218,491.359,514.553,476.939,509.989,463.656z M479.824,479.824 c-1.007,1.007-3.163,2.535-6.304,1.457l-108.394-37.246c-1.603-0.55-3.27-0.824-4.932-0.824c-2.45,0-4.889,0.593-7.098,1.762 c-31.327,16.573-66.727,25.363-102.374,25.417c-119.55,0.193-218.442-96.91-220.336-216.441 C29.433,193.81,52.309,137.289,94.8,94.798c42.491-42.49,98.995-65.362,159.151-64.411 c119.53,1.895,216.625,100.738,216.439,220.336c-0.056,35.648-8.845,71.048-25.417,102.373c-1.962,3.708-2.301,8.063-0.938,12.03 l37.246,108.394C482.36,476.659,480.832,478.818,479.824,479.824z"/> </g> </g><g> <g> <path d="M247.91,362.748c-7.939,0-15.545,6.981-15.178,15.178c0.368,8.223,6.669,15.178,15.178,15.178 c7.939,0,15.545-6.981,15.178-15.178C262.72,369.702,256.419,362.748,247.91,362.748z"/> </g> </g><g> <g> <path d="M247.91,127.674c-41.639,0-75.515,33.876-75.515,75.515c0,8.382,6.796,15.178,15.178,15.178s15.178-6.796,15.178-15.178 c0-24.9,20.259-45.159,45.159-45.159s45.159,20.259,45.159,45.159s-20.259,45.159-45.159,45.159 c-8.382,0-15.178,6.796-15.178,15.178v61.905c0,8.382,6.796,15.178,15.178,15.178c8.382,0,15.178-6.795,15.178-15.179v-48.259 c34.389-7.045,60.337-37.54,60.337-73.982C323.425,161.55,289.549,127.674,247.91,127.674z"/> </g> </g></symbol><symbol id="search" viewBox="0 0 419.09088 419"><title>search</title><path d="m158.066406 235.921875c-14.636718 0-26.5 11.863281-26.5 26.5 0 14.632813 11.863282 26.5 26.5 26.5 14.636719 0 26.5-11.867187 26.5-26.5-.027344-14.625-11.875-26.476563-26.5-26.5zm0 33c-3.589844 0-6.5-2.910156-6.5-6.5s2.910156-6.5 6.5-6.5 6.5 2.910156 6.5 6.5c.003906 1.722656-.679687 3.378906-1.898437 4.597656-1.222657 1.21875-2.878907 1.90625-4.601563 1.902344zm0 0"/><path d="m244.464844 235.921875c-14.632813 0-26.5 11.863281-26.5 26.5 0 14.632813 11.867187 26.5 26.5 26.5 14.636718 0 26.5-11.867187 26.5-26.5-.023438-14.625-11.875-26.476563-26.5-26.5zm0 33c-3.589844 0-6.5-2.910156-6.5-6.5s2.910156-6.5 6.5-6.5 6.5 2.910156 6.5 6.5c.003906 1.722656-.679688 3.378906-1.898438 4.597656s-2.875 1.90625-4.601562 1.902344zm0 0"/><path d="m272.367188 122.71875h-131.800782l-2.101562-12.699219c-2.441406-14.535156-15.058594-25.164062-29.796875-25.097656h-6.902344c-5.523437 0-10 4.476563-10 10 0 5.519531 4.476563 10 10 10h6.902344c4.976562.015625 9.230469 3.59375 10.097656 8.5l16.199219 95.5c2.445312 14.535156 15.058594 25.164063 29.800781 25.097656h92.199219c5.523437 0 10-4.476562 10-10 0-5.523437-4.476563-10-10-10h-92.199219c-4.980469-.015625-9.234375-3.59375-10.097656-8.5l-.101563-.800781h83.5c13.179688.015625 24.839844-8.527344 28.800782-21.097656l15.097656-47.902344c.980468-3.03125.421875-6.355469-1.5-8.898438-1.917969-2.550781-4.910156-4.0625-8.097656-4.101562zm-24.601563 54.902344c-1.3125 4.246094-5.253906 7.128906-9.699219 7.097656h-86.898437l-7.101563-42h114.699219zm0 0"/><path d="m326.167969 311.921875c66.441406-73.933594 63.410156-186.9375-6.902344-257.203125-72.898437-72.898438-191.5-72.898438-264.5 0-71.648437 71.652344-73.191406 187.332031-3.476563 260.867188 69.710938 73.53125 185.308594 78.160156 260.675782 10.433593l90 90c1.875 1.890625 4.4375 2.9375 7.101562 2.902344 2.652344-.011719 5.199219-1.050781 7.101563-2.902344 1.871093-1.867187 2.921875-4.402343 2.921875-7.050781 0-2.644531-1.050782-5.179688-2.921875-7.046875zm-139.101563 42c-79.644531-.023437-148.1875-56.300781-163.710937-134.417969-15.519531-78.117187 26.296875-156.324218 99.886719-186.792968 73.585937-30.46875 158.449218-4.71875 202.691406 61.507812 44.246094 66.226562 35.550781 154.484375-20.765625 210.800781-31.277344 31.390625-73.789063 48.996094-118.101563 48.902344zm0 0"/></symbol><symbol id="heart" viewBox="0 0 471.701 471.701"><title>heart</title><path d="M433.601,67.001c-24.7-24.7-57.4-38.2-92.3-38.2s-67.7,13.6-92.4,38.3l-12.9,12.9l-13.1-13.1 c-24.7-24.7-57.6-38.4-92.5-38.4c-34.8,0-67.6,13.6-92.2,38.2c-24.7,24.7-38.3,57.5-38.2,92.4c0,34.9,13.7,67.6,38.4,92.3 l187.8,187.8c2.6,2.6,6.1,4,9.5,4c3.4,0,6.9-1.3,9.5-3.9l188.2-187.5c24.7-24.7,38.3-57.5,38.3-92.4 C471.801,124.501,458.301,91.701,433.601,67.001z M414.401,232.701l-178.7,178l-178.3-178.3c-19.6-19.6-30.4-45.6-30.4-73.3 s10.7-53.7,30.3-73.2c19.5-19.5,45.5-30.3,73.1-30.3c27.7,0,53.8,10.8,73.4,30.4l22.6,22.6c5.3,5.3,13.8,5.3,19.1,0l22.4-22.4 c19.6-19.6,45.7-30.4,73.3-30.4c27.6,0,53.6,10.8,73.2,30.3c19.6,19.6,30.3,45.6,30.3,73.3 C444.801,187.101,434.001,213.101,414.401,232.701z"/></symbol><symbol id="exclamation" viewBox="0 0 512 512"><title>exclamation</title><g> <g> <path d="M256,0C114.497,0,0,114.507,0,256c0,141.503,114.507,256,256,256c141.503,0,256-114.507,256-256 C512,114.497,397.493,0,256,0z M256,472c-119.393,0-216-96.615-216-216c0-119.393,96.615-216,216-216 c119.393,0,216,96.615,216,216C472,375.393,375.385,472,256,472z"/> </g> </g><g> <g> <path d="M256,128.877c-11.046,0-20,8.954-20,20V277.67c0,11.046,8.954,20,20,20s20-8.954,20-20V148.877 C276,137.831,267.046,128.877,256,128.877z"/> </g> </g><g> <g> <circle cx="256" cy="349.16" r="27"/> </g> </g></symbol><symbol id="settings" viewBox="0 0 54 54"><title>settings</title><path d="M51.22,21h-5.052c-0.812,0-1.481-0.447-1.792-1.197s-0.153-1.54,0.42-2.114l3.572-3.571 c0.525-0.525,0.814-1.224,0.814-1.966c0-0.743-0.289-1.441-0.814-1.967l-4.553-4.553c-1.05-1.05-2.881-1.052-3.933,0l-3.571,3.571 c-0.574,0.573-1.366,0.733-2.114,0.421C33.447,9.313,33,8.644,33,7.832V2.78C33,1.247,31.753,0,30.22,0H23.78 C22.247,0,21,1.247,21,2.78v5.052c0,0.812-0.447,1.481-1.197,1.792c-0.748,0.313-1.54,0.152-2.114-0.421l-3.571-3.571 c-1.052-1.052-2.883-1.05-3.933,0l-4.553,4.553c-0.525,0.525-0.814,1.224-0.814,1.967c0,0.742,0.289,1.44,0.814,1.966l3.572,3.571 c0.573,0.574,0.73,1.364,0.42,2.114S8.644,21,7.832,21H2.78C1.247,21,0,22.247,0,23.78v6.439C0,31.753,1.247,33,2.78,33h5.052 c0.812,0,1.481,0.447,1.792,1.197s0.153,1.54-0.42,2.114l-3.572,3.571c-0.525,0.525-0.814,1.224-0.814,1.966 c0,0.743,0.289,1.441,0.814,1.967l4.553,4.553c1.051,1.051,2.881,1.053,3.933,0l3.571-3.572c0.574-0.573,1.363-0.731,2.114-0.42 c0.75,0.311,1.197,0.98,1.197,1.792v5.052c0,1.533,1.247,2.78,2.78,2.78h6.439c1.533,0,2.78-1.247,2.78-2.78v-5.052 c0-0.812,0.447-1.481,1.197-1.792c0.751-0.312,1.54-0.153,2.114,0.42l3.571,3.572c1.052,1.052,2.883,1.05,3.933,0l4.553-4.553 c0.525-0.525,0.814-1.224,0.814-1.967c0-0.742-0.289-1.44-0.814-1.966l-3.572-3.571c-0.573-0.574-0.73-1.364-0.42-2.114 S45.356,33,46.168,33h5.052c1.533,0,2.78-1.247,2.78-2.78V23.78C54,22.247,52.753,21,51.22,21z M52,30.22 C52,30.65,51.65,31,51.22,31h-5.052c-1.624,0-3.019,0.932-3.64,2.432c-0.622,1.5-0.295,3.146,0.854,4.294l3.572,3.571 c0.305,0.305,0.305,0.8,0,1.104l-4.553,4.553c-0.304,0.304-0.799,0.306-1.104,0l-3.571-3.572c-1.149-1.149-2.794-1.474-4.294-0.854 c-1.5,0.621-2.432,2.016-2.432,3.64v5.052C31,51.65,30.65,52,30.22,52H23.78C23.35,52,23,51.65,23,51.22v-5.052 c0-1.624-0.932-3.019-2.432-3.64c-0.503-0.209-1.021-0.311-1.533-0.311c-1.014,0-1.997,0.4-2.761,1.164l-3.571,3.572 c-0.306,0.306-0.801,0.304-1.104,0l-4.553-4.553c-0.305-0.305-0.305-0.8,0-1.104l3.572-3.571c1.148-1.148,1.476-2.794,0.854-4.294 C10.851,31.932,9.456,31,7.832,31H2.78C2.35,31,2,30.65,2,30.22V23.78C2,23.35,2.35,23,2.78,23h5.052 c1.624,0,3.019-0.932,3.64-2.432c0.622-1.5,0.295-3.146-0.854-4.294l-3.572-3.571c-0.305-0.305-0.305-0.8,0-1.104l4.553-4.553 c0.304-0.305,0.799-0.305,1.104,0l3.571,3.571c1.147,1.147,2.792,1.476,4.294,0.854C22.068,10.851,23,9.456,23,7.832V2.78 C23,2.35,23.35,2,23.78,2h6.439C30.65,2,31,2.35,31,2.78v5.052c0,1.624,0.932,3.019,2.432,3.64 c1.502,0.622,3.146,0.294,4.294-0.854l3.571-3.571c0.306-0.305,0.801-0.305,1.104,0l4.553,4.553c0.305,0.305,0.305,0.8,0,1.104 l-3.572,3.571c-1.148,1.148-1.476,2.794-0.854,4.294c0.621,1.5,2.016,2.432,3.64,2.432h5.052C51.65,23,52,23.35,52,23.78V30.22z"/><path d="M27,18c-4.963,0-9,4.037-9,9s4.037,9,9,9s9-4.037,9-9S31.963,18,27,18z M27,34c-3.859,0-7-3.141-7-7s3.141-7,7-7 s7,3.141,7,7S30.859,34,27,34z"/></symbol></svg>